<svg version="1.1" id="Layer_1" xmlns="http://www.w3.org/2000/svg" xmlns:xlink="http://www.w3.org/1999/xlink" x="0px" y="0px"
	 width="100%" viewBox="0 0 1024 1024" enable-background="new 0 0 1024 1024" xml:space="preserve">
<path fill="#000000" opacity="1.000000" stroke="none" 
	d="
M521.743042,647.684082 
	C584.537659,642.882141 635.854126,599.269653 649.025757,539.296509 
	C655.390869,510.314789 651.144287,482.445801 638.108582,455.821747 
	C632.794128,444.967712 625.903809,435.219238 618.318604,425.892975 
	C617.260437,424.591888 615.060791,423.116028 617.112122,421.311829 
	C618.716064,419.901245 620.611450,421.300079 622.133667,422.259430 
	C624.023865,423.450714 625.049683,425.429413 626.111450,427.315125 
	C628.248047,431.109955 630.448120,434.794708 634.416687,437.073669 
	C636.214478,438.106110 637.221191,439.968781 637.692200,441.948059 
	C639.099487,447.861969 642.095703,453.085114 644.728149,458.461548 
	C651.182495,471.643890 655.997498,485.372559 658.488708,499.856018 
	C659.413269,505.231140 661.058777,510.011444 665.150269,514.002136 
	C671.328796,520.028442 672.566711,528.057983 670.797729,535.866943 
	C664.764465,562.500305 655.683167,587.437866 636.605347,608.430725 
	C613.706238,633.628418 586.062256,650.238464 554.251709,660.955017 
	C542.108276,665.046021 529.832336,665.778198 517.295715,663.717224 
	C511.655151,662.789917 506.030579,662.840332 500.373169,663.588379 
	C493.414368,664.508484 487.562408,661.006104 481.233398,659.023132 
	C468.088440,654.904602 455.083191,650.113159 441.389160,647.948914 
	C437.943268,647.404419 434.326324,647.701355 430.970428,646.872803 
	C420.480286,644.283020 410.231598,645.952637 399.863373,647.668396 
	C391.131622,649.113220 375.963715,640.632263 371.623413,632.067688 
	C369.146759,627.180603 365.671173,623.538391 360.609741,621.765015 
	C354.146881,619.500610 348.843842,616.257019 344.855255,610.308472 
	C342.047363,606.120667 337.542114,603.094604 333.927094,599.419617 
	C326.229767,591.594543 324.208130,582.757568 326.081604,571.590759 
	C328.004486,560.129822 335.606110,555.172424 344.009735,550.042786 
	C347.725891,547.774414 351.549591,547.378845 355.349274,549.724487 
	C362.234436,553.974976 368.506348,551.751465 374.489288,547.850647 
	C378.824036,545.024414 379.376923,545.109314 381.225677,550.105713 
	C386.090637,563.253662 391.710236,576.059631 399.697144,587.648376 
	C417.585480,613.603638 442.544739,629.911804 471.744293,640.635254 
	C487.830231,646.542847 504.298645,648.593994 521.743042,647.684082 
z"/>
<path fill="#000000" opacity="1.000000" stroke="none" 
	d="
M523.051270,512.733398 
	C530.068481,499.477570 547.611389,496.217987 560.014038,505.509277 
	C560.968140,499.147552 554.148376,492.987457 547.090027,493.882324 
	C544.260925,494.240936 541.695190,495.433594 539.067627,496.485046 
	C534.560913,498.288452 528.804443,494.908173 527.987061,490.211578 
	C527.674377,488.414703 528.778564,487.477020 529.904663,486.452118 
	C539.577698,477.648407 554.454163,476.114899 565.576111,483.076385 
	C571.518372,486.795868 574.741577,492.138062 575.491821,499.435150 
	C576.449768,508.753082 576.151367,518.032349 576.133789,527.334717 
	C576.130981,528.827393 576.046875,530.333618 575.833069,531.809387 
	C575.336609,535.237305 574.405151,538.481934 570.340332,539.190613 
	C566.320312,539.891479 563.695923,537.806824 561.829712,534.481323 
	C561.594116,534.061523 561.369141,533.635803 560.848816,532.678528 
	C552.645325,540.096313 543.590942,543.292175 533.808594,536.401306 
	C525.927490,530.849670 522.493042,522.774780 523.051270,512.733398 
M551.975891,512.584961 
	C549.162720,512.522827 546.349304,512.400940 543.536560,512.416565 
	C541.071777,512.430176 538.696106,513.221069 537.861816,515.647827 
	C536.942932,518.320435 538.644531,520.371582 540.650085,522.004150 
	C545.215454,525.720459 551.841919,525.476074 557.194275,521.458984 
	C559.423828,519.785583 561.412720,517.770386 560.474915,514.818665 
	C559.608398,512.091492 556.804443,513.373352 554.835266,512.959534 
	C554.189941,512.823914 553.521057,512.800110 551.975891,512.584961 
z"/>
<path fill="#000000" opacity="1.000000" stroke="none" 
	d="
M497.342285,479.568542 
	C512.515137,481.442383 522.575745,493.876923 521.366882,508.573547 
	C521.092407,511.910187 519.563354,513.185852 516.330261,513.388977 
	C505.391296,514.076294 494.463348,514.938599 483.530823,515.734009 
	C484.112732,522.674438 496.512390,526.562500 502.218781,522.548462 
	C508.423828,518.183594 512.717957,521.454956 517.504639,524.344116 
	C520.087524,525.903137 520.607361,527.815247 517.953003,529.784424 
	C512.314880,533.967041 506.394043,537.856262 499.651947,539.813354 
	C494.342987,541.354553 488.784698,539.834656 484.362488,536.892273 
	C473.615601,529.741699 466.333740,520.304871 466.598053,506.457947 
	C466.893768,490.968506 481.319824,478.024078 497.342285,479.568542 
M498.579620,494.906219 
	C491.401855,492.173218 485.153870,495.246155 483.365814,503.321320 
	C490.781952,500.504913 498.083313,502.130005 505.565948,502.291779 
	C505.155243,497.633362 501.924469,496.698517 498.579620,494.906219 
z"/>
<path fill="#000000" opacity="1.000000" stroke="none" 
	d="
M581.638062,511.324768 
	C577.223877,491.257385 594.252991,480.202606 607.570801,478.810760 
	C620.592896,477.449860 633.846375,489.391724 634.266113,502.984833 
	C634.548462,512.130249 634.398499,521.293579 634.253357,530.445923 
	C634.172485,535.543701 631.186829,539.091858 627.268250,539.316650 
	C622.837158,539.570801 619.449585,536.610107 618.919250,531.221863 
	C618.299500,524.924561 618.772339,518.602722 619.477051,512.297974 
	C620.571533,502.506104 618.076233,497.519196 611.214722,495.178894 
	C604.709717,492.960144 598.289429,497.662659 597.175049,504.436646 
	C595.773071,512.958923 597.867004,521.313477 597.388611,529.756348 
	C597.073364,535.318787 594.407837,539.027222 589.977539,539.283875 
	C585.804810,539.525574 581.880432,535.173279 581.727173,529.766357 
	C581.557373,523.778625 581.660767,517.783264 581.638062,511.324768 
z"/>
<path fill="#000000" opacity="1.000000" stroke="none" 
	d="
M387.474243,428.402832 
	C394.971649,430.786652 401.478271,429.336945 408.063904,425.355286 
	C394.820984,444.452942 384.405914,464.537811 378.324829,487.781464 
	C369.210571,480.477661 361.216278,473.894226 360.300323,463.245544 
	C359.633759,455.495941 357.796356,448.210052 355.866089,440.836151 
	C354.073090,433.986908 355.258972,432.584290 361.586548,429.216553 
	C370.122894,424.673187 378.552399,428.067322 387.474243,428.402832 
z"/>
<path fill="#000000" opacity="1.000000" stroke="none" 
	d="
M440.565979,530.470215 
	C435.045441,538.248840 424.995361,541.517151 415.487427,538.852051 
	C399.595581,534.397766 389.435486,516.689819 393.610199,500.722382 
	C398.813324,480.821106 425.168793,473.131317 440.227234,487.163605 
	C441.901398,488.723633 444.358215,491.279388 442.654480,493.008606 
	C440.455475,495.240479 439.232208,500.068390 434.250427,498.258636 
	C430.679596,496.961487 426.851227,496.703217 423.306244,495.025452 
	C417.654053,492.350281 414.563873,497.548859 410.696045,500.002167 
	C406.861694,502.434235 406.861938,506.524323 407.491333,510.337006 
	C409.353394,521.616638 421.888947,526.834900 431.095551,520.211304 
	C433.886627,518.203308 436.267517,516.618225 439.291779,519.859741 
	C442.265503,523.047180 444.495880,526.119202 440.565979,530.470215 
z"/>
<path fill="#000000" opacity="1.000000" stroke="none" 
	d="
M460.882721,537.085938 
	C451.878082,540.246094 447.688751,537.135437 447.731720,528.447754 
	C447.843719,505.805969 447.658264,483.162903 447.677368,460.520416 
	C447.683289,453.515259 451.628693,450.289032 457.761658,452.023041 
	C460.337219,452.751251 461.971069,454.108246 462.448486,457.112579 
	C463.187073,461.760559 463.482483,466.346924 462.893280,471.012360 
	C462.160522,476.814423 462.040527,482.627228 462.875244,488.434692 
	C463.594910,493.441986 462.732513,498.398804 462.392517,503.369354 
	C461.810364,511.879700 463.436218,520.302979 463.329224,528.794373 
	C463.293091,531.663940 463.120911,534.455322 460.882721,537.085938 
z"/>
<path fill="#000000" opacity="1.000000" stroke="none" 
	d="
M555.251221,562.548340 
	C554.842224,556.643372 557.784302,555.425964 562.617798,555.615173 
	C568.459534,555.843933 574.727112,554.968140 578.679016,560.385864 
	C585.513428,569.755188 584.071228,578.268433 571.731079,584.337952 
	C567.738403,586.301819 563.362488,586.447388 559.071716,586.850464 
	C555.641357,587.172607 554.809021,584.630798 554.805237,581.968140 
	C554.796265,575.644165 555.021301,569.319885 555.251221,562.548340 
M564.677734,563.374329 
	C563.817200,563.453735 562.828430,563.702026 562.678345,564.557373 
	C561.958740,568.659546 562.158875,572.819275 562.572876,576.918152 
	C562.804199,579.207703 564.893372,578.896606 566.533386,578.491943 
	C570.436523,577.528992 574.685364,573.142090 574.180176,570.378784 
	C573.314819,565.644653 570.396179,563.185913 564.677734,563.374329 
z"/>
<path fill="#000000" opacity="1.000000" stroke="none" 
	d="
M490.928284,573.722412 
	C489.007202,575.148682 489.039337,576.848572 489.822327,578.380005 
	C490.710449,580.117004 492.362335,579.406555 493.821381,579.112488 
	C496.127686,578.647644 498.430939,578.505554 500.705627,579.349487 
	C502.497894,580.014465 503.409698,581.223083 503.149963,583.166382 
	C502.895874,585.067688 501.823822,586.219055 499.868683,586.259155 
	C494.380859,586.372009 488.891846,586.442017 483.402954,586.479553 
	C481.147614,586.494934 480.699158,584.909058 480.696594,583.092957 
	C480.684998,574.941345 480.684967,566.789734 480.709839,558.638184 
	C480.716858,556.329651 481.610413,554.458130 484.237610,555.038452 
	C489.041077,556.099426 493.838470,555.600952 498.648346,555.537170 
	C500.291687,555.515442 502.158691,555.236267 502.459045,557.640991 
	C502.763550,560.078796 501.615479,561.455933 499.208557,561.699280 
	C495.937775,562.029907 492.658386,562.275391 489.394012,562.556458 
	C488.830139,565.656799 490.269409,566.699768 492.891907,566.893738 
	C495.036255,567.052307 497.178558,567.346741 499.296570,567.722778 
	C501.262146,568.071838 501.294403,569.666809 501.243469,571.217529 
	C501.179443,573.167114 499.967926,573.730652 498.240967,573.691895 
	C495.920654,573.639832 493.599670,573.614746 490.928284,573.722412 
z"/>
<path fill="#000000" opacity="1.000000" stroke="none" 
	d="
M518.634766,582.888550 
	C516.993713,574.504333 518.256653,566.555664 518.678650,558.600464 
	C518.791138,556.480042 519.912170,555.653503 521.880676,555.673096 
	C526.874084,555.722900 531.867676,555.765259 536.860657,555.845703 
	C538.444214,555.871155 539.995850,556.190430 540.045654,558.189392 
	C540.096008,560.211975 538.818665,561.147583 536.910461,561.336243 
	C534.426270,561.581909 531.942993,561.838867 529.456665,562.060425 
	C527.841064,562.204407 526.443542,562.596008 526.402588,564.586426 
	C526.357483,566.780579 527.827332,567.437622 529.651001,567.531311 
	C531.310181,567.616638 532.978455,567.551514 534.641968,567.515137 
	C536.458435,567.475403 538.047241,567.754395 538.175598,570.024780 
	C538.286987,571.996216 537.262024,573.186951 535.377563,573.548401 
	C533.592407,573.890930 531.785645,574.160522 529.975891,574.324280 
	C528.219666,574.483215 526.519287,574.652161 526.463684,576.933899 
	C526.409180,579.170105 528.012451,579.576416 529.804688,579.765991 
	C532.113586,580.010254 534.416382,580.317749 536.716858,580.634155 
	C538.190613,580.836792 539.189880,581.520508 539.176208,583.203918 
	C539.164856,584.604492 538.351562,585.460266 537.148071,585.691650 
	C531.561646,586.766174 525.911133,586.518738 520.288086,586.121643 
	C519.016296,586.031799 518.794128,584.503540 518.634766,582.888550 
z"/>
<path fill="#000000" opacity="1.000000" stroke="none" 
	d="
M457.565918,562.287109 
	C455.448486,562.411926 453.619598,562.444519 453.778107,564.884521 
	C453.912537,566.954834 455.275696,567.683594 457.199371,567.642029 
	C458.029633,567.624146 458.860748,567.644470 459.691498,567.650757 
	C462.066071,567.668762 464.445923,567.436707 464.333069,571.091736 
	C464.234009,574.299622 462.223450,574.540344 459.952820,574.314697 
	C455.175537,573.839905 453.398865,576.186096 453.160980,580.661743 
	C453.058624,582.587280 453.366913,585.327271 450.103973,585.414917 
	C446.964478,585.499390 445.778992,583.597900 445.354553,580.783630 
	C444.282074,573.672241 444.861176,566.527222 444.911285,559.401245 
	C444.934204,556.142334 446.946106,554.724426 450.284698,555.261475 
	C455.508972,556.101990 460.710876,557.429565 466.182495,556.046082 
	C468.190002,559.581238 467.304230,561.437805 463.443481,561.839478 
	C461.626953,562.028503 459.801331,562.130005 457.565918,562.287109 
z"/>
<path fill="#000000" opacity="1.000000" stroke="none" 
	d="
M631.725586,381.280304 
	C629.093872,378.490540 626.625854,376.027435 624.365723,373.386444 
	C623.390625,372.247009 622.831177,370.619873 623.967590,369.256378 
	C625.292175,367.667053 626.991882,368.079041 628.430847,369.143097 
	C631.239807,371.220123 634.493286,371.780701 637.815918,372.017578 
	C641.026306,372.246490 643.509216,373.585632 645.379517,376.178223 
	C648.398926,380.363983 648.503723,384.121216 645.485962,386.952698 
	C641.650208,390.551575 638.803894,387.384064 635.937439,385.304474 
	C634.474487,384.243164 633.286072,382.803497 631.725586,381.280304 
z"/>
</svg>